<?xml version="1.0" encoding="UTF-8"?>
<svg xmlns="http://www.w3.org/2000/svg" xmlns:xlink="http://www.w3.org/1999/xlink" viewBox="0 0 64 64" width="64px" height="64px">
<defs>
<linearGradient id="linear0" gradientUnits="userSpaceOnUse" x1="86" y1="8.73438" x2="86" y2="166.095566" gradientTransform="matrix(0.372093,0,0,0.372093,0,0)">
<stop offset="0" style="stop-color:rgb(99.607843%,88.235295%,58.431375%);stop-opacity:1;"/>
<stop offset="1" style="stop-color:rgb(34.901962%,7.058824%,67.058825%);stop-opacity:1;"/>
</linearGradient>
<linearGradient id="linear1" gradientUnits="userSpaceOnUse" x1="60.46875" y1="8.73438" x2="60.46875" y2="166.095566" gradientTransform="matrix(0.372093,0,0,0.372093,0,0)">
<stop offset="0" style="stop-color:rgb(99.607843%,88.235295%,58.431375%);stop-opacity:1;"/>
<stop offset="1" style="stop-color:rgb(34.901962%,7.058824%,67.058825%);stop-opacity:1;"/>
</linearGradient>
<linearGradient id="linear2" gradientUnits="userSpaceOnUse" x1="111.53125" y1="8.73438" x2="111.53125" y2="166.095566" gradientTransform="matrix(0.372093,0,0,0.372093,0,0)">
<stop offset="0" style="stop-color:rgb(99.607843%,88.235295%,58.431375%);stop-opacity:1;"/>
<stop offset="1" style="stop-color:rgb(34.901962%,7.058824%,67.058825%);stop-opacity:1;"/>
</linearGradient>
<linearGradient id="linear3" gradientUnits="userSpaceOnUse" x1="86" y1="73.90625" x2="86" y2="98.195869" gradientTransform="matrix(0.372093,0,0,0.372093,0,0)">
<stop offset="0" style="stop-color:rgb(100%,100%,100%);stop-opacity:1;"/>
<stop offset="1" style="stop-color:rgb(56.470591%,25.882354%,92.156863%);stop-opacity:1;"/>
</linearGradient>
</defs>
<g id="surface1319244">
<path style=" stroke:none;fill-rule:nonzero;fill:url(#linear0);" d="M 32 43 C 38.066406 43 43 38.066406 43 32 C 43 25.933594 38.066406 21 32 21 C 25.933594 21 21 25.933594 21 32 C 21 38.066406 25.933594 43 32 43 Z M 32 23 C 36.964844 23 41 27.035156 41 32 C 41 36.964844 36.964844 41 32 41 C 27.035156 41 23 36.964844 23 32 C 23 27.035156 27.035156 23 32 23 Z M 32 23 "/>
<path style=" stroke:none;fill-rule:nonzero;fill:url(#linear1);" d="M 11.8125 37.71875 C 14.238281 36.949219 16 34.675781 16 32 C 16 29.320312 14.234375 27.046875 11.808594 26.28125 C 14.261719 17.558594 21.9375 11.464844 31 11.042969 L 31 14.042969 C 31 14.746094 31.367188 15.375 31.984375 15.730469 C 32.292969 15.910156 32.640625 16 32.984375 16 C 33.335938 16 33.683594 15.910156 33.996094 15.726562 L 39.542969 12.503906 C 40.453125 11.972656 41 11.039062 41 10 C 41 8.960938 40.453125 8.027344 39.542969 7.496094 L 33.996094 4.273438 C 33.378906 3.910156 32.605469 3.910156 31.984375 4.269531 C 31.367188 4.625 31 5.253906 31 5.957031 L 31 9.042969 C 20.941406 9.46875 12.417969 16.28125 9.808594 26.011719 C 6.589844 26.109375 4 28.757812 4 32 C 4 35.246094 6.589844 37.890625 9.8125 37.988281 C 11.207031 43.164062 14.351562 47.703125 18.769531 50.816406 L 19.921875 49.179688 C 15.957031 46.390625 13.117188 42.339844 11.8125 37.71875 Z M 38.539062 9.226562 C 38.953125 9.46875 39 9.847656 39 10 C 39 10.152344 38.953125 10.53125 38.539062 10.773438 L 33 13.984375 L 32.992188 6.003906 Z M 6 32 C 6 29.792969 7.792969 28 10 28 C 12.207031 28 14 29.792969 14 32 C 14 34.207031 12.207031 36 10 36 C 7.792969 36 6 34.207031 6 32 Z M 6 32 "/>
<path style=" stroke:none;fill-rule:nonzero;fill:url(#linear2);" d="M 60 32 C 60 28.753906 57.410156 26.109375 54.1875 26.011719 C 52.792969 20.835938 49.648438 16.296875 45.230469 13.183594 L 44.078125 14.820312 C 48.042969 17.613281 50.882812 21.660156 52.1875 26.28125 C 49.761719 27.050781 48 29.324219 48 32 C 48 34.679688 49.765625 36.953125 52.191406 37.722656 C 49.738281 46.441406 42.0625 52.535156 33 52.957031 L 33 49.957031 C 33 49.253906 32.632812 48.625 32.015625 48.269531 C 31.394531 47.910156 30.621094 47.910156 30.003906 48.273438 L 24.457031 51.496094 C 23.546875 52.027344 23 52.960938 23 54 C 23 55.039062 23.546875 55.972656 24.457031 56.503906 L 30.003906 59.726562 C 30.316406 59.910156 30.664062 59.996094 31.015625 59.996094 C 31.359375 59.996094 31.707031 59.910156 32.015625 59.730469 C 32.632812 59.375 33 58.746094 33 58.042969 L 33 54.957031 C 43.058594 54.53125 51.582031 47.71875 54.191406 37.992188 C 57.410156 37.886719 60 35.242188 60 32 Z M 31 57.992188 L 25.460938 54.773438 C 25.046875 54.53125 25 54.152344 25 54 C 25 53.847656 25.046875 53.46875 25.460938 53.226562 L 31 49.957031 Z M 54 36 C 51.792969 36 50 34.207031 50 32 C 50 29.792969 51.792969 28 54 28 C 56.207031 28 58 29.792969 58 32 C 58 34.207031 56.207031 36 54 36 Z M 54 36 "/>
<path style=" stroke:none;fill-rule:nonzero;fill:url(#linear3);" d="M 32 28 C 29.789062 28 28 29.789062 28 32 C 28 34.210938 29.789062 36 32 36 C 34.210938 36 36 34.210938 36 32 C 36 29.789062 34.210938 28 32 28 Z M 32 28 "/>
</g>
</svg>
